<svg width="58" height="58" viewBox="0 0 58 58" fill="none" xmlns="http://www.w3.org/2000/svg">
<path d="M33.8334 29L34.6878 29.8544L35.5422 29L34.6878 28.1456L33.8334 29ZM9.66671 27.7917C8.99937 27.7917 8.45837 28.3327 8.45837 29C8.45837 29.6673 8.99937 30.2083 9.66671 30.2083L9.66671 27.7917ZM20.1878 44.3544L34.6878 29.8544L32.979 28.1456L18.479 42.6456L20.1878 44.3544ZM34.6878 28.1456L20.1878 13.6456L18.479 15.3544L32.979 29.8544L34.6878 28.1456ZM33.8334 27.7917L9.66671 27.7917L9.66671 30.2083L33.8334 30.2083L33.8334 27.7917Z" fill="#606368"/>
<path d="M48.3334 45.9167L48.3334 12.0834" stroke="#606368" stroke-width="2.41667"/>
</svg>
