<svg width="80" height="80" viewBox="0 0 80 80" fill="none" xmlns="http://www.w3.org/2000/svg">
<path fill-rule="evenodd" clip-rule="evenodd" d="M63.3333 20H60V16.6667C60 11.1438 55.5228 6.66666 50 6.66666H16.6666C11.1438 6.66666 6.66663 11.1438 6.66663 16.6667V40C6.66663 45.5228 11.1438 50 16.6666 50V56.6667C16.6704 57.9219 17.379 59.0685 18.5 59.6333C18.96 59.8829 19.4767 60.0092 20 60C20.7212 60 21.423 59.7661 22 59.3333C23.8885 61.8514 26.8524 63.3333 30 63.3333H45.5666L58 72.6667C58.5769 73.0994 59.2787 73.3333 60 73.3333C60.5232 73.3426 61.04 73.2162 61.5 72.9667C62.6209 72.4018 63.3295 71.2552 63.3333 70V63.3333C68.8561 63.3333 73.3333 58.8562 73.3333 53.3333V30C73.3333 24.4771 68.8561 20 63.3333 20ZM23.3332 50V46.6666C23.3332 44.8257 21.8408 43.3333 19.9998 43.3333H16.6665C14.8256 43.3333 13.3332 41.8409 13.3332 40V16.6666C13.3332 14.8257 14.8256 13.3333 16.6665 13.3333H49.9998C51.8408 13.3333 53.3332 14.8257 53.3332 16.6666V40C53.3332 41.8409 51.8408 43.3333 49.9998 43.3333H33.3332C32.6119 43.3333 31.9102 43.5672 31.3332 44L23.3332 50ZM63.3332 56.6667C65.1742 56.6667 66.6666 55.1743 66.6666 53.3333V30C66.6666 28.159 65.1742 26.6667 63.3332 26.6667H59.9999V40C59.9999 45.5228 55.5228 50 49.9999 50H34.4333L27.3999 55.3C28.0083 56.1334 28.9684 56.6381 29.9999 56.6667H46.6666C47.3878 56.6667 48.0896 56.9006 48.6666 57.3333L56.6666 63.3333V60C56.6666 58.159 58.159 56.6667 59.9999 56.6667H63.3332Z" fill="url(#paint0_linear_42_82)"/>
<defs>
<linearGradient id="paint0_linear_42_82" x1="40" y1="6.66666" x2="40" y2="73.3338" gradientUnits="userSpaceOnUse">
<stop stop-color="#B64FC8"/>
<stop offset="1" stop-color="#00E9B1"/>
</linearGradient>
</defs>
</svg>
